<mxfile host="app.diagrams.net" modified="2023-08-16T09:36:52.378Z" agent="Mozilla/5.0 (Windows NT 10.0; Win64; x64) AppleWebKit/537.36 (KHTML, like Gecko) Chrome/115.0.0.0 Safari/537.36" etag="-GdNfTL8y5QhHfcvMOXP" version="21.6.7" type="device">
  <diagram name="Page-1" id="cfpLGJuZ4Yg54ww8kxgt">
    <mxGraphModel dx="1235" dy="666" grid="1" gridSize="10" guides="1" tooltips="1" connect="1" arrows="1" fold="1" page="1" pageScale="1" pageWidth="1169" pageHeight="1654" background="#ffffff" math="0" shadow="0">
      <root>
        <mxCell id="0" />
        <mxCell id="1" parent="0" />
        <mxCell id="HVhnCRtBF8bLDxQhW_DK-13" style="edgeStyle=orthogonalEdgeStyle;rounded=0;orthogonalLoop=1;jettySize=auto;html=1;entryX=1;entryY=0.5;entryDx=0;entryDy=0;fontFamily=Lucida Console;spacingTop=0;" edge="1" parent="1" source="HVhnCRtBF8bLDxQhW_DK-1" target="HVhnCRtBF8bLDxQhW_DK-7">
          <mxGeometry relative="1" as="geometry" />
        </mxCell>
        <mxCell id="HVhnCRtBF8bLDxQhW_DK-1" value="&lt;font&gt;factCovid&lt;/font&gt;" style="swimlane;html=1;fontFamily=Lucida Console;whiteSpace=wrap;spacingTop=0;" vertex="1" parent="1">
          <mxGeometry x="430" y="120" width="220" height="220" as="geometry" />
        </mxCell>
        <mxCell id="HVhnCRtBF8bLDxQhW_DK-3" value="&lt;font style=&quot;font-size: 13px;&quot;&gt;FIPS&lt;br&gt;states,&lt;br&gt;region,&lt;br&gt;confirmed,&lt;br&gt;death,&lt;br&gt;recovered,&lt;br&gt;active,&lt;br&gt;positive,&lt;br&gt;negative,&lt;br&gt;hospitalizedcurrently,&lt;br&gt;hospitalized,&lt;br&gt;hospitalizeddischanged&lt;/font&gt;" style="text;html=1;align=left;verticalAlign=middle;resizable=0;points=[];autosize=1;strokeColor=none;fillColor=none;fontFamily=Lucida Console;spacingTop=0;" vertex="1" parent="HVhnCRtBF8bLDxQhW_DK-1">
          <mxGeometry x="20" y="20" width="200" height="200" as="geometry" />
        </mxCell>
        <mxCell id="HVhnCRtBF8bLDxQhW_DK-5" value="&lt;font&gt;dimHospital&lt;/font&gt;" style="swimlane;html=1;fontFamily=Lucida Console;whiteSpace=wrap;spacingTop=0;" vertex="1" parent="1">
          <mxGeometry x="790" y="142.5" width="220" height="175" as="geometry" />
        </mxCell>
        <mxCell id="HVhnCRtBF8bLDxQhW_DK-6" value="&lt;span style=&quot;font-size: 13px;&quot;&gt;FIPS,&lt;br&gt;&lt;/span&gt;state,&lt;br&gt;hos_lat,&lt;br&gt;hos_lang,&lt;br&gt;hq_address,&lt;br&gt;hospital_type,&lt;br&gt;hospital_name,&lt;br&gt;hq_city,&lt;br&gt;hq_state&lt;br&gt;" style="text;html=1;align=left;verticalAlign=middle;resizable=0;points=[];autosize=1;strokeColor=none;fillColor=none;fontFamily=Lucida Console;spacing=2;spacingTop=0;" vertex="1" parent="HVhnCRtBF8bLDxQhW_DK-5">
          <mxGeometry x="20" y="20" width="120" height="140" as="geometry" />
        </mxCell>
        <mxCell id="HVhnCRtBF8bLDxQhW_DK-7" value="&lt;font&gt;dimRegion&lt;/font&gt;" style="swimlane;html=1;fontFamily=Lucida Console;whiteSpace=wrap;spacingTop=0;" vertex="1" parent="1">
          <mxGeometry x="70" y="160" width="220" height="140" as="geometry" />
        </mxCell>
        <mxCell id="HVhnCRtBF8bLDxQhW_DK-8" value="&lt;span style=&quot;font-size: 13px;&quot;&gt;FIPS,&lt;br&gt;&lt;/span&gt;state,&lt;br&gt;region,&lt;br&gt;lat,&lt;br&gt;lang,&lt;br&gt;county,&lt;br&gt;state_abb" style="text;html=1;align=left;verticalAlign=middle;resizable=0;points=[];autosize=1;strokeColor=none;fillColor=none;fontFamily=Lucida Console;spacingTop=0;" vertex="1" parent="HVhnCRtBF8bLDxQhW_DK-7">
          <mxGeometry x="10" y="25" width="90" height="110" as="geometry" />
        </mxCell>
        <mxCell id="HVhnCRtBF8bLDxQhW_DK-9" value="&lt;font&gt;dimDate&lt;/font&gt;" style="swimlane;html=1;startSize=23;fontFamily=Lucida Console;whiteSpace=wrap;spacingTop=0;" vertex="1" parent="1">
          <mxGeometry x="430" y="420" width="220" height="120" as="geometry" />
        </mxCell>
        <mxCell id="HVhnCRtBF8bLDxQhW_DK-10" value="&lt;span style=&quot;font-size: 13px;&quot;&gt;FIPS,&lt;br&gt;&lt;/span&gt;date,&lt;br&gt;month,&lt;br&gt;year,&lt;br&gt;is_weekend" style="text;html=1;align=left;verticalAlign=middle;resizable=0;points=[];autosize=1;strokeColor=none;fillColor=none;fontFamily=Lucida Console;spacingTop=0;" vertex="1" parent="HVhnCRtBF8bLDxQhW_DK-9">
          <mxGeometry x="20" y="35" width="100" height="80" as="geometry" />
        </mxCell>
        <mxCell id="HVhnCRtBF8bLDxQhW_DK-11" style="edgeStyle=orthogonalEdgeStyle;rounded=0;orthogonalLoop=1;jettySize=auto;html=1;entryX=0;entryY=0.5;entryDx=0;entryDy=0;exitX=1.006;exitY=0.455;exitDx=0;exitDy=0;exitPerimeter=0;fontFamily=Lucida Console;spacingTop=0;" edge="1" parent="1" source="HVhnCRtBF8bLDxQhW_DK-3" target="HVhnCRtBF8bLDxQhW_DK-5">
          <mxGeometry relative="1" as="geometry" />
        </mxCell>
        <mxCell id="HVhnCRtBF8bLDxQhW_DK-15" style="edgeStyle=orthogonalEdgeStyle;rounded=0;orthogonalLoop=1;jettySize=auto;html=1;entryX=0.547;entryY=0.001;entryDx=0;entryDy=0;entryPerimeter=0;fontFamily=Lucida Console;spacingTop=0;" edge="1" parent="1" source="HVhnCRtBF8bLDxQhW_DK-3" target="HVhnCRtBF8bLDxQhW_DK-9">
          <mxGeometry relative="1" as="geometry" />
        </mxCell>
      </root>
    </mxGraphModel>
  </diagram>
</mxfile>
